HIERARCHY
ROOT joint_Root
{
  OFFSET 0 0 0
  CHANNELS 6 Xposition Yposition Zposition Zrotation Xrotation Yrotation
  JOINT Hips
  {
    OFFSET 0.847027 93.984 -452.225
    CHANNELS 6 Xposition Yposition Zposition Zrotation Xrotation Yrotation
    JOINT Spine
    {
      OFFSET 15.7357 0 0
      CHANNELS 6 Xposition Yposition Zposition Zrotation Xrotation Yrotation
      JOINT Chest
      {
        OFFSET 8.98455 -0.406207 0
        CHANNELS 6 Xposition Yposition Zposition Zrotation Xrotation Yrotation
        JOINT Neck
        {
          OFFSET 16.3773 0 0
          CHANNELS 6 Xposition Yposition Zposition Zrotation Xrotation Yrotation
          JOINT Head
          {
            OFFSET 6.45672 0 0
            CHANNELS 6 Xposition Yposition Zposition Zrotation Xrotation Yrotation
            End Site
            {
              OFFSET 0 0 0
            }
          }
        }
        JOINT Shoulder_L
        {
          OFFSET 12.9942 -0.242716 4.98039
          CHANNELS 6 Xposition Yposition Zposition Zrotation Xrotation Yrotation
          JOINT UpperArm_L
          {
            OFFSET 5.34809 0 0
            CHANNELS 6 Xposition Yposition Zposition Zrotation Xrotation Yrotation
            JOINT LowerArm_L
            {
              OFFSET 24.3286 1.87007e-05 0
              CHANNELS 6 Xposition Yposition Zposition Zrotation Xrotation Yrotation
              JOINT Hand_L
              {
                OFFSET 22.2916 0 0
                CHANNELS 6 Xposition Yposition Zposition Zrotation Xrotation Yrotation
                End Site
                {
                  OFFSET 0 0 0
                }
              }
            }
          }
        }
        JOINT Shoulder_R
        {
          OFFSET 12.9945 -0.242716 -4.98039
          CHANNELS 6 Xposition Yposition Zposition Zrotation Xrotation Yrotation
          JOINT UpperArm_R
          {
            OFFSET -5.34813 0 0
            CHANNELS 6 Xposition Yposition Zposition Zrotation Xrotation Yrotation
            JOINT LowerArm_R
            {
              OFFSET -24.3289 0.000322201 0
              CHANNELS 6 Xposition Yposition Zposition Zrotation Xrotation Yrotation
              JOINT Hand_R
              {
                OFFSET -22.2915 -0.000108084 0
                CHANNELS 6 Xposition Yposition Zposition Zrotation Xrotation Yrotation
                End Site
                {
                  OFFSET 0 0 0
                }
              }
            }
          }
        }
      }
    }
    JOINT UpperLeg_L
    {
      OFFSET -2.19248 -6.46944 0
      CHANNELS 6 Xposition Yposition Zposition Zrotation Xrotation Yrotation
      JOINT LowerLeg_L
      {
        OFFSET 39.0811 0 -1.23785e-05
        CHANNELS 6 Xposition Yposition Zposition Zrotation Xrotation Yrotation
        JOINT Foot_L
        {
          OFFSET 40.9854 0 -1.26872e-05
          CHANNELS 6 Xposition Yposition Zposition Zrotation Xrotation Yrotation
          JOINT Toes_L
          {
            OFFSET 11.7543 0 0
            CHANNELS 6 Xposition Yposition Zposition Zrotation Xrotation Yrotation
            End Site
            {
              OFFSET 0 0 0
            }
          }
        }
      }
    }
    JOINT UpperLeg_R
    {
      OFFSET -2.19251 6.46944 0
      CHANNELS 6 Xposition Yposition Zposition Zrotation Xrotation Yrotation
      JOINT LowerLeg_R
      {
        OFFSET -39.0811 -0.00228153 -0.0401928
        CHANNELS 6 Xposition Yposition Zposition Zrotation Xrotation Yrotation
        JOINT Foot_R
        {
          OFFSET -40.9854 0 0
          CHANNELS 6 Xposition Yposition Zposition Zrotation Xrotation Yrotation
          JOINT Toes_R
          {
            OFFSET -11.7543 0 0
            CHANNELS 6 Xposition Yposition Zposition Zrotation Xrotation Yrotation
            End Site
            {
              OFFSET 0 0 0
            }
          }
        }
      }
    }
  }
}
MOTION
Frames:	4
Frame Time:	0.0333333
0 0 0 0 0 -0 -1.93695 92.0037 -15.3561 84.7617 -8.23467 3.43209 15.7357 5.1072e-06 -5.51765e-07 80.436 77.2304 -86.2323 8.98455 -0.406207 -4.3199e-07 17.2444 -4.64936 -10.9104 16.3773 -1.3905e-06 -6.99897e-07 0.0375948 -0.8138 1.43007 6.45672 -1.25837e-06 -1.02172e-07 -24.5981 5.8781 -11.9274 12.9942 -0.242716 4.98039 -91.1434 7.35601 -96.1402 5.34809 -7.22636e-06 -6.2814e-07 -46.7764 9.32923 -16.9869 24.3286 1.87007e-05 4.90208e-06 -0.633085 -2.32674 -15.2314 22.2916 -9.88446e-07 4.63217e-06 18.7104 5.55489 -8.93952 12.9945 -0.242716 -4.98039 92.3232 -5.72574 -82.871 -5.34813 -1.25947e-06 -3.79883e-06 -5.34439 -81.9416 -16.2272 -24.3289 0.000322201 -8.65921e-06 -3.56594 -6.18178 -30.0477 -22.2915 -0.000108084 -4.47941e-06 20.54 5.23954 1.70549 -2.19248 -6.46944 -1.22534e-07 -169.651 -10.0063 -10.1818 39.0811 -6.73843e-06 -1.23785e-05 0.0511485 -0.0965418 27.7349 40.9854 -6.48686e-06 -1.26872e-05 -4.41228 -3.62889 -62.9009 11.7543 -2.30145e-07 3.05095e-06 -0.023279 0.0154868 -16.4729 -2.19251 6.46944 -1.45247e-06 179.266 13.7296 172.935 -39.0811 -0.00228153 -0.0401928 0.0377506 -0.0859432 17.9471 -40.9854 7.72618e-06 5.99936e-06 -2.99983 9.90905 -56.0157 -11.7543 -5.6619e-06 -5.58687e-06 0.0882531 -0.0998221 -17.5537 
0 0 0 0 0 -0 -2.08018 92.0056 -15.2849 84.706 -8.42514 3.50516 15.7357 5.1072e-06 -5.51765e-07 80.4099 77.3114 -86.1895 8.98455 -0.406207 -4.3199e-07 17.0838 -4.62601 -10.8863 16.3773 -1.3905e-06 -6.99897e-07 -0.11482 -0.797161 1.78679 6.45672 -1.25837e-06 -1.02172e-07 -25.4029 6.00892 -11.6498 12.9942 -0.242716 4.98039 -91.1503 7.3106 -96.0328 5.34809 -7.22636e-06 -6.2814e-07 -47.2439 9.38962 -16.3111 24.3286 1.87007e-05 4.90208e-06 -0.579035 -2.20241 -14.7232 22.2916 -9.88446e-07 4.63217e-06 18.6151 5.5537 -8.88144 12.9945 -0.242716 -4.98039 92.3495 -5.79617 -82.8889 -5.34813 -1.25947e-06 -3.79883e-06 -7.28283 -82.609 -18.9817 -24.3289 0.000322201 -8.65921e-06 -4.50753 -7.28086 -31.8785 -22.2915 -0.000108084 -4.47941e-06 21.9006 5.23005 1.95424 -2.19248 -6.46944 -1.22534e-07 -169.475 -9.95404 -9.97021 39.0811 -6.73843e-06 -1.23785e-05 0.0516748 -0.0975859 27.7117 40.9854 -6.48686e-06 -1.26872e-05 -4.57454 -3.82976 -63.003 11.7543 -2.30145e-07 3.05095e-06 -0.0221905 0.0192004 -16.3575 -2.19251 6.46944 -1.45247e-06 179.39 13.6735 173.039 -39.0811 -0.00228153 -0.0401928 0.0372936 -0.0862398 18.0058 -40.9854 7.72618e-06 5.99936e-06 -2.88418 10.0235 -56.1119 -11.7543 -5.6619e-06 -5.58687e-06 0.0834045 -0.0942432 -17.4994 
0 0 0 0 0 -0 -2.20204 91.9971 -15.2388 84.6039 -8.69163 3.44325 15.7357 5.1072e-06 -5.51765e-07 80.4012 77.4662 -86.1246 8.98455 -0.406207 -4.3199e-07 16.7813 -4.56165 -10.7937 16.3773 -1.3905e-06 -6.99897e-07 -0.303221 -0.765636 2.02066 6.45672 -1.25837e-06 -1.02172e-07 -25.8932 6.06206 -11.3732 12.9942 -0.242716 4.98039 -91.1462 7.26348 -96.008 5.34809 -7.22636e-06 -6.2814e-07 -47.762 9.54623 -15.5385 24.3286 1.87007e-05 4.90208e-06 -0.512874 -2.02476 -14.2204 22.2916 -9.88446e-07 4.63217e-06 18.4552 5.55367 -8.88067 12.9945 -0.242716 -4.98039 92.3597 -5.86655 -83.0425 -5.34813 -1.25947e-06 -3.79883e-06 -7.33741 -82.8351 -20.0572 -24.3289 0.000322201 -8.65921e-06 -5.4929 -7.95894 -34.7681 -22.2915 -0.000108084 -4.47941e-06 22.9931 5.2257 2.06555 -2.19248 -6.46944 -1.22534e-07 -169.258 -10.0793 -9.92653 39.0811 -6.73843e-06 -1.23785e-05 0.051331 -0.0969168 27.7573 40.9854 -6.48686e-06 -1.26872e-05 -4.71043 -3.90512 -63.0648 11.7543 -2.30145e-07 3.05095e-06 -0.0210974 0.0163102 -16.4181 -2.19251 6.46944 -1.45247e-06 179.593 13.4861 172.972 -39.0811 -0.00228153 -0.0401928 0.0367796 -0.084474 18.084 -40.9854 7.72618e-06 5.99936e-06 -2.78553 10.0992 -56.1889 -11.7543 -5.6619e-06 -5.58687e-06 0.0851496 -0.0962421 -17.5189 
0 0 0 0 0 -0 -2.28888 91.9925 -15.1905 84.5498 -9.06803 3.47894 15.7357 5.1072e-06 -5.51765e-07 80.5055 77.6029 -86.1783 8.98455 -0.406207 -4.3199e-07 16.5241 -4.45836 -10.7164 16.3773 -1.3905e-06 -6.99897e-07 -0.43391 -0.79017 2.29413 6.45672 -1.25837e-06 -1.02172e-07 -26.3763 6.17486 -11.2274 12.9942 -0.242716 4.98039 -91.1448 7.21958 -95.9649 5.34809 -7.22636e-06 -6.2814e-07 -48.2192 9.95913 -14.8287 24.3286 1.87007e-05 4.90208e-06 -0.468966 -1.91372 -13.7822 22.2916 -9.88446e-07 4.63217e-06 18.4007 5.55183 -8.79277 12.9945 -0.242716 -4.98039 92.4001 -5.97851 -83.0793 -5.34813 -1.25947e-06 -3.79883e-06 -9.02008 -82.8418 -22.7821 -24.3289 0.000322201 -8.65921e-06 -6.22517 -7.81794 -38.7161 -22.2915 -0.000108084 -4.47941e-06 23.9349 5.22652 2.04547 -2.19248 -6.46944 -1.22534e-07 -169.107 -10.2159 -9.74665 39.0811 -6.73843e-06 -1.23785e-05 0.0523742 -0.0986888 27.7862 40.9854 -6.48686e-06 -1.26872e-05 -4.83731 -4.0899 -63.1881 11.7543 -2.30145e-07 3.05095e-06 -0.0204549 0.0192473 -16.3301 -2.19251 6.46944 -1.45247e-06 179.703 13.3677 173.003 -39.0811 -0.00228153 -0.0401928 0.0371805 -0.0842545 18.1526 -40.9854 7.72618e-06 5.99936e-06 -2.68693 10.3215 -56.2452 -11.7543 -5.6619e-06 -5.58687e-06 0.0859578 -0.0971727 -17.5279 
